<mxfile host="Electron" agent="Mozilla/5.0 (Windows NT 10.0; Win64; x64) AppleWebKit/537.36 (KHTML, like Gecko) draw.io/27.0.9 Chrome/134.0.6998.205 Electron/35.4.0 Safari/537.36" version="27.0.9">
  <diagram name="Page-1" id="XJ2aGhm0hSQ4JMngsgD4">
    <mxGraphModel dx="1330" dy="611" grid="0" gridSize="10" guides="1" tooltips="1" connect="1" arrows="1" fold="1" page="0" pageScale="1" pageWidth="850" pageHeight="1100" background="#ffffff" math="0" shadow="0">
      <root>
        <mxCell id="0" />
        <mxCell id="1" parent="0" />
        <mxCell id="53TVA5k776LkS0prdjDd-1" value="&lt;font style=&quot;color: rgb(0, 0, 0);&quot; face=&quot;Times New Roman&quot;&gt;SIMADIN&lt;/font&gt;" style="shape=ellipse;html=1;dashed=0;whiteSpace=wrap;perimeter=ellipsePerimeter;fillColor=#fad7ac;strokeColor=#000000;" parent="1" vertex="1">
          <mxGeometry x="160" y="120" width="100" height="100" as="geometry" />
        </mxCell>
        <mxCell id="53TVA5k776LkS0prdjDd-2" value="&lt;font style=&quot;color: rgb(0, 0, 0);&quot;&gt;Wali Santri&lt;/font&gt;" style="html=1;dashed=0;whiteSpace=wrap;fillColor=#fad7ac;strokeColor=#000000;" parent="1" vertex="1">
          <mxGeometry x="-36" y="142" width="100" height="50" as="geometry" />
        </mxCell>
        <mxCell id="53TVA5k776LkS0prdjDd-3" value="&lt;font style=&quot;color: rgb(0, 0, 0);&quot;&gt;Guru/Admin&lt;/font&gt;" style="html=1;dashed=0;whiteSpace=wrap;fillColor=#fad7ac;strokeColor=#000000;" parent="1" vertex="1">
          <mxGeometry x="329" y="151" width="100" height="50" as="geometry" />
        </mxCell>
        <mxCell id="53TVA5k776LkS0prdjDd-4" value="" style="endArrow=classic;html=1;rounded=0;exitX=1;exitY=0.5;exitDx=0;exitDy=0;strokeColor=#000000;" parent="1" source="53TVA5k776LkS0prdjDd-2" edge="1">
          <mxGeometry width="50" height="50" relative="1" as="geometry">
            <mxPoint x="189" y="338" as="sourcePoint" />
            <mxPoint x="158" y="168" as="targetPoint" />
          </mxGeometry>
        </mxCell>
        <mxCell id="53TVA5k776LkS0prdjDd-8" value="&lt;font style=&quot;color: rgb(0, 0, 0); font-size: 8px;&quot;&gt;Mengakses Informasi&lt;/font&gt;" style="text;strokeColor=none;align=center;fillColor=none;html=1;verticalAlign=middle;whiteSpace=wrap;rounded=0;" parent="1" vertex="1">
          <mxGeometry x="70" y="142" width="85" height="30" as="geometry" />
        </mxCell>
        <mxCell id="53TVA5k776LkS0prdjDd-9" value="" style="endArrow=classic;html=1;rounded=0;entryX=1;entryY=0.75;entryDx=0;entryDy=0;exitX=-0.001;exitY=0.61;exitDx=0;exitDy=0;exitPerimeter=0;strokeColor=#000000;" parent="1" source="53TVA5k776LkS0prdjDd-1" target="53TVA5k776LkS0prdjDd-2" edge="1">
          <mxGeometry width="50" height="50" relative="1" as="geometry">
            <mxPoint x="120" y="298" as="sourcePoint" />
            <mxPoint x="170" y="248" as="targetPoint" />
          </mxGeometry>
        </mxCell>
        <mxCell id="53TVA5k776LkS0prdjDd-10" value="&lt;font style=&quot;color: rgb(0, 0, 0); font-size: 8px;&quot;&gt;Memberikan Informasi&lt;/font&gt;" style="text;strokeColor=none;align=center;fillColor=none;html=1;verticalAlign=middle;whiteSpace=wrap;rounded=0;" parent="1" vertex="1">
          <mxGeometry x="75" y="171" width="85" height="30" as="geometry" />
        </mxCell>
        <mxCell id="53TVA5k776LkS0prdjDd-11" value="" style="endArrow=classic;html=1;rounded=0;entryX=0.998;entryY=0.434;entryDx=0;entryDy=0;entryPerimeter=0;exitX=0;exitY=0.25;exitDx=0;exitDy=0;strokeColor=#000000;" parent="1" source="53TVA5k776LkS0prdjDd-3" target="53TVA5k776LkS0prdjDd-1" edge="1">
          <mxGeometry width="50" height="50" relative="1" as="geometry">
            <mxPoint x="303" y="298" as="sourcePoint" />
            <mxPoint x="353" y="248" as="targetPoint" />
          </mxGeometry>
        </mxCell>
        <mxCell id="53TVA5k776LkS0prdjDd-12" value="&lt;font style=&quot;color: rgb(0, 0, 0); font-size: 8px;&quot;&gt;Mengelola Data&lt;/font&gt;" style="text;strokeColor=none;align=center;fillColor=none;html=1;verticalAlign=middle;whiteSpace=wrap;rounded=0;" parent="1" vertex="1">
          <mxGeometry x="260" y="139" width="67" height="21" as="geometry" />
        </mxCell>
        <mxCell id="53TVA5k776LkS0prdjDd-13" value="&lt;font style=&quot;color: rgb(0, 0, 0); font-size: 8px;&quot;&gt;Memberikan Data&lt;/font&gt;" style="text;strokeColor=none;align=center;fillColor=none;html=1;verticalAlign=middle;whiteSpace=wrap;rounded=0;" parent="1" vertex="1">
          <mxGeometry x="260" y="175.5" width="67" height="21" as="geometry" />
        </mxCell>
        <mxCell id="53TVA5k776LkS0prdjDd-14" value="" style="endArrow=classic;html=1;rounded=0;entryX=0;entryY=0.5;entryDx=0;entryDy=0;exitX=1.02;exitY=0.56;exitDx=0;exitDy=0;exitPerimeter=0;strokeColor=#000000;" parent="1" source="53TVA5k776LkS0prdjDd-1" target="53TVA5k776LkS0prdjDd-3" edge="1">
          <mxGeometry width="50" height="50" relative="1" as="geometry">
            <mxPoint x="265" y="298" as="sourcePoint" />
            <mxPoint x="315" y="248" as="targetPoint" />
          </mxGeometry>
        </mxCell>
        <mxCell id="53TVA5k776LkS0prdjDd-15" value="&lt;font face=&quot;Times New Roman&quot; style=&quot;color: rgb(0, 0, 0); font-size: 30px;&quot;&gt;DFD Level 0&lt;/font&gt;" style="text;strokeColor=none;align=center;fillColor=none;html=1;verticalAlign=middle;whiteSpace=wrap;rounded=0;" parent="1" vertex="1">
          <mxGeometry x="108.25" y="25" width="203.5" height="49" as="geometry" />
        </mxCell>
        <mxCell id="53TVA5k776LkS0prdjDd-16" value="&lt;font face=&quot;Times New Roman&quot; style=&quot;color: rgb(0, 0, 0); font-size: 30px;&quot;&gt;DFD Level 1&lt;/font&gt;" style="text;strokeColor=none;align=center;fillColor=none;html=1;verticalAlign=middle;whiteSpace=wrap;rounded=0;" parent="1" vertex="1">
          <mxGeometry x="99" y="290" width="203.5" height="49" as="geometry" />
        </mxCell>
        <mxCell id="53TVA5k776LkS0prdjDd-17" value="&lt;font style=&quot;color: rgb(0, 0, 0);&quot; face=&quot;Times New Roman&quot;&gt;Create Account&lt;/font&gt;" style="shape=ellipse;html=1;dashed=0;whiteSpace=wrap;perimeter=ellipsePerimeter;fillColor=#fad7ac;strokeColor=#000000;" parent="1" vertex="1">
          <mxGeometry x="155" y="404" width="100" height="100" as="geometry" />
        </mxCell>
        <mxCell id="53TVA5k776LkS0prdjDd-18" value="&lt;font style=&quot;color: rgb(0, 0, 0);&quot; face=&quot;Times New Roman&quot;&gt;Kelola Data Santri&lt;/font&gt;" style="shape=ellipse;html=1;dashed=0;whiteSpace=wrap;perimeter=ellipsePerimeter;fillColor=#fad7ac;strokeColor=#000000;" parent="1" vertex="1">
          <mxGeometry x="160" y="555" width="100" height="100" as="geometry" />
        </mxCell>
        <mxCell id="53TVA5k776LkS0prdjDd-19" value="&lt;font style=&quot;color: rgb(0, 0, 0);&quot; face=&quot;Times New Roman&quot;&gt;Kelola Nilai &amp;amp; Rapot&lt;/font&gt;" style="shape=ellipse;html=1;dashed=0;whiteSpace=wrap;perimeter=ellipsePerimeter;fillColor=#fad7ac;strokeColor=#000000;" parent="1" vertex="1">
          <mxGeometry x="160" y="706" width="100" height="100" as="geometry" />
        </mxCell>
        <mxCell id="53TVA5k776LkS0prdjDd-20" value="&lt;font style=&quot;color: rgb(0, 0, 0);&quot; face=&quot;Times New Roman&quot;&gt;Kelola Pembayaran Tagihan&lt;/font&gt;" style="shape=ellipse;html=1;dashed=0;whiteSpace=wrap;perimeter=ellipsePerimeter;fillColor=#fad7ac;strokeColor=#000000;" parent="1" vertex="1">
          <mxGeometry x="160" y="857" width="100" height="100" as="geometry" />
        </mxCell>
        <mxCell id="53TVA5k776LkS0prdjDd-21" value="&lt;font style=&quot;color: rgb(0, 0, 0);&quot;&gt;Wali Santri&lt;/font&gt;" style="html=1;dashed=0;whiteSpace=wrap;fillColor=#fad7ac;strokeColor=#000000;" parent="1" vertex="1">
          <mxGeometry x="-30" y="429" width="100" height="50" as="geometry" />
        </mxCell>
        <mxCell id="53TVA5k776LkS0prdjDd-22" value="&lt;font style=&quot;color: rgb(0, 0, 0);&quot;&gt;Guru/Admin&lt;/font&gt;" style="html=1;dashed=0;whiteSpace=wrap;fillColor=#fad7ac;strokeColor=#000000;" parent="1" vertex="1">
          <mxGeometry x="378" y="432" width="100" height="50" as="geometry" />
        </mxCell>
        <mxCell id="53TVA5k776LkS0prdjDd-23" value="" style="endArrow=classic;html=1;rounded=0;entryX=0.982;entryY=0.407;entryDx=0;entryDy=0;entryPerimeter=0;exitX=0;exitY=0.25;exitDx=0;exitDy=0;strokeColor=#000000;" parent="1" source="53TVA5k776LkS0prdjDd-22" target="53TVA5k776LkS0prdjDd-17" edge="1">
          <mxGeometry width="50" height="50" relative="1" as="geometry">
            <mxPoint x="184" y="617" as="sourcePoint" />
            <mxPoint x="234" y="567" as="targetPoint" />
          </mxGeometry>
        </mxCell>
        <mxCell id="53TVA5k776LkS0prdjDd-24" value="&lt;font style=&quot;color: rgb(0, 0, 0); font-size: 10px;&quot;&gt;Buat Akun&lt;/font&gt;" style="text;strokeColor=none;align=center;fillColor=none;html=1;verticalAlign=middle;whiteSpace=wrap;rounded=0;" parent="1" vertex="1">
          <mxGeometry x="283" y="419" width="67" height="21" as="geometry" />
        </mxCell>
        <mxCell id="53TVA5k776LkS0prdjDd-25" value="" style="endArrow=classic;html=1;rounded=0;strokeColor=#000000;" parent="1" source="53TVA5k776LkS0prdjDd-17" target="53TVA5k776LkS0prdjDd-26" edge="1">
          <mxGeometry width="50" height="50" relative="1" as="geometry">
            <mxPoint x="235" y="567" as="sourcePoint" />
            <mxPoint x="285" y="517" as="targetPoint" />
          </mxGeometry>
        </mxCell>
        <mxCell id="53TVA5k776LkS0prdjDd-26" value="&lt;font style=&quot;color: rgb(0, 0, 0);&quot;&gt;DB 1 Account&lt;/font&gt;" style="html=1;dashed=0;whiteSpace=wrap;shape=partialRectangle;right=0;left=0;fillColor=#fad7ac;strokeColor=#000000;" parent="1" vertex="1">
          <mxGeometry x="394" y="575" width="125" height="42" as="geometry" />
        </mxCell>
        <mxCell id="53TVA5k776LkS0prdjDd-27" value="" style="endArrow=classic;html=1;rounded=0;entryX=0;entryY=0.25;entryDx=0;entryDy=0;exitX=1.005;exitY=0.579;exitDx=0;exitDy=0;exitPerimeter=0;" parent="1" source="53TVA5k776LkS0prdjDd-17" target="53TVA5k776LkS0prdjDd-26" edge="1">
          <mxGeometry width="50" height="50" relative="1" as="geometry">
            <mxPoint x="235" y="694" as="sourcePoint" />
            <mxPoint x="285" y="644" as="targetPoint" />
          </mxGeometry>
        </mxCell>
        <mxCell id="53TVA5k776LkS0prdjDd-28" value="&lt;font style=&quot;color: rgb(0, 0, 0); font-size: 10px;&quot;&gt;Simpan Data Akun&lt;/font&gt;" style="text;strokeColor=none;align=center;fillColor=none;html=1;verticalAlign=middle;whiteSpace=wrap;rounded=0;rotation=30;" parent="1" vertex="1">
          <mxGeometry x="298.5" y="509" width="67" height="21" as="geometry" />
        </mxCell>
        <mxCell id="53TVA5k776LkS0prdjDd-29" value="" style="endArrow=classic;html=1;rounded=0;entryX=0.963;entryY=0.418;entryDx=0;entryDy=0;entryPerimeter=0;exitX=0;exitY=0.5;exitDx=0;exitDy=0;strokeColor=#000000;" parent="1" source="53TVA5k776LkS0prdjDd-22" target="53TVA5k776LkS0prdjDd-18" edge="1">
          <mxGeometry width="50" height="50" relative="1" as="geometry">
            <mxPoint x="388" y="455" as="sourcePoint" />
            <mxPoint x="263" y="455" as="targetPoint" />
          </mxGeometry>
        </mxCell>
        <mxCell id="53TVA5k776LkS0prdjDd-30" value="" style="endArrow=classic;html=1;rounded=0;entryX=0.908;entryY=0.241;entryDx=0;entryDy=0;entryPerimeter=0;exitX=0.132;exitY=0.941;exitDx=0;exitDy=0;strokeColor=#000000;exitPerimeter=0;" parent="1" source="53TVA5k776LkS0prdjDd-22" target="53TVA5k776LkS0prdjDd-19" edge="1">
          <mxGeometry width="50" height="50" relative="1" as="geometry">
            <mxPoint x="388" y="467" as="sourcePoint" />
            <mxPoint x="266" y="607" as="targetPoint" />
          </mxGeometry>
        </mxCell>
        <mxCell id="53TVA5k776LkS0prdjDd-31" value="" style="endArrow=classic;html=1;rounded=0;entryX=0.932;entryY=0.244;entryDx=0;entryDy=0;entryPerimeter=0;strokeColor=#000000;" parent="1" source="53TVA5k776LkS0prdjDd-22" target="53TVA5k776LkS0prdjDd-20" edge="1">
          <mxGeometry width="50" height="50" relative="1" as="geometry">
            <mxPoint x="401" y="489" as="sourcePoint" />
            <mxPoint x="261" y="740" as="targetPoint" />
          </mxGeometry>
        </mxCell>
        <mxCell id="53TVA5k776LkS0prdjDd-32" value="&lt;font style=&quot;color: rgb(0, 0, 0); font-size: 10px;&quot;&gt;Kelola Data&lt;/font&gt;" style="text;strokeColor=none;align=center;fillColor=none;html=1;verticalAlign=middle;whiteSpace=wrap;rounded=0;rotation=-45;" parent="1" vertex="1">
          <mxGeometry x="250" y="534" width="67" height="21" as="geometry" />
        </mxCell>
        <mxCell id="53TVA5k776LkS0prdjDd-33" value="&lt;font style=&quot;color: rgb(0, 0, 0); font-size: 10px;&quot;&gt;Kelola Nilai&lt;/font&gt;" style="text;strokeColor=none;align=center;fillColor=none;html=1;verticalAlign=middle;whiteSpace=wrap;rounded=0;rotation=-45;" parent="1" vertex="1">
          <mxGeometry x="265" y="602" width="67" height="21" as="geometry" />
        </mxCell>
        <mxCell id="53TVA5k776LkS0prdjDd-34" value="&lt;font style=&quot;color: rgb(0, 0, 0); font-size: 10px;&quot;&gt;Kelola Pembayaran&lt;/font&gt;" style="text;strokeColor=none;align=center;fillColor=none;html=1;verticalAlign=middle;whiteSpace=wrap;rounded=0;rotation=-60;" parent="1" vertex="1">
          <mxGeometry x="245.50000000000003" y="725" width="106" height="21" as="geometry" />
        </mxCell>
        <mxCell id="53TVA5k776LkS0prdjDd-36" value="&lt;font style=&quot;color: rgb(0, 0, 0);&quot;&gt;DB 2 Santri&lt;/font&gt;" style="html=1;dashed=0;whiteSpace=wrap;shape=partialRectangle;right=0;left=0;fillColor=#fad7ac;strokeColor=#000000;" parent="1" vertex="1">
          <mxGeometry x="391" y="725" width="125" height="42" as="geometry" />
        </mxCell>
        <mxCell id="53TVA5k776LkS0prdjDd-37" value="&lt;font style=&quot;color: rgb(0, 0, 0);&quot;&gt;DB 3 Nilai&lt;/font&gt;" style="html=1;dashed=0;whiteSpace=wrap;shape=partialRectangle;right=0;left=0;fillColor=#fad7ac;strokeColor=#000000;" parent="1" vertex="1">
          <mxGeometry x="-68" y="735" width="125" height="42" as="geometry" />
        </mxCell>
        <mxCell id="53TVA5k776LkS0prdjDd-38" value="&lt;font style=&quot;color: rgb(0, 0, 0);&quot;&gt;DB 4 Pembayaran&lt;/font&gt;" style="html=1;dashed=0;whiteSpace=wrap;shape=partialRectangle;right=0;left=0;fillColor=#fad7ac;strokeColor=#000000;" parent="1" vertex="1">
          <mxGeometry x="-77" y="886" width="125" height="42" as="geometry" />
        </mxCell>
        <mxCell id="53TVA5k776LkS0prdjDd-39" value="" style="endArrow=classic;html=1;rounded=0;entryX=0.25;entryY=0;entryDx=0;entryDy=0;exitX=0.955;exitY=0.613;exitDx=0;exitDy=0;exitPerimeter=0;strokeColor=#000000;" parent="1" source="53TVA5k776LkS0prdjDd-18" target="53TVA5k776LkS0prdjDd-36" edge="1">
          <mxGeometry width="50" height="50" relative="1" as="geometry">
            <mxPoint x="284" y="778" as="sourcePoint" />
            <mxPoint x="334" y="728" as="targetPoint" />
          </mxGeometry>
        </mxCell>
        <mxCell id="53TVA5k776LkS0prdjDd-40" value="&lt;font style=&quot;color: rgb(0, 0, 0); font-size: 10px;&quot;&gt;Simpan Data Santri&lt;/font&gt;" style="text;strokeColor=none;align=center;fillColor=none;html=1;verticalAlign=middle;whiteSpace=wrap;rounded=0;rotation=30;" parent="1" vertex="1">
          <mxGeometry x="337" y="669" width="106" height="22" as="geometry" />
        </mxCell>
        <mxCell id="53TVA5k776LkS0prdjDd-41" value="" style="endArrow=classic;html=1;rounded=0;exitX=0;exitY=0.5;exitDx=0;exitDy=0;strokeColor=#000000;entryX=0.5;entryY=1;entryDx=0;entryDy=0;" parent="1" source="53TVA5k776LkS0prdjDd-36" target="53TVA5k776LkS0prdjDd-21" edge="1">
          <mxGeometry width="50" height="50" relative="1" as="geometry">
            <mxPoint x="266" y="626" as="sourcePoint" />
            <mxPoint x="75" y="556" as="targetPoint" />
            <Array as="points">
              <mxPoint x="23" y="598" />
            </Array>
          </mxGeometry>
        </mxCell>
        <mxCell id="53TVA5k776LkS0prdjDd-42" value="&lt;font style=&quot;color: rgb(0, 0, 0); font-size: 10px;&quot;&gt;Memberi Informasi Data Santri&lt;/font&gt;" style="text;strokeColor=none;align=center;fillColor=none;html=1;verticalAlign=middle;whiteSpace=wrap;rounded=0;rotation=20;" parent="1" vertex="1">
          <mxGeometry x="32" y="589" width="106" height="22" as="geometry" />
        </mxCell>
        <mxCell id="53TVA5k776LkS0prdjDd-43" value="" style="endArrow=classic;html=1;rounded=0;exitX=0.5;exitY=1;exitDx=0;exitDy=0;entryX=0.452;entryY=0.029;entryDx=0;entryDy=0;strokeColor=#000000;entryPerimeter=0;" parent="1" source="53TVA5k776LkS0prdjDd-17" target="53TVA5k776LkS0prdjDd-18" edge="1">
          <mxGeometry width="50" height="50" relative="1" as="geometry">
            <mxPoint x="195" y="747" as="sourcePoint" />
            <mxPoint x="245" y="697" as="targetPoint" />
          </mxGeometry>
        </mxCell>
        <mxCell id="53TVA5k776LkS0prdjDd-44" value="" style="endArrow=classic;html=1;rounded=0;entryX=0.5;entryY=0;entryDx=0;entryDy=0;strokeColor=#000000;" parent="1" source="53TVA5k776LkS0prdjDd-18" target="53TVA5k776LkS0prdjDd-19" edge="1">
          <mxGeometry width="50" height="50" relative="1" as="geometry">
            <mxPoint x="209.66" y="659" as="sourcePoint" />
            <mxPoint x="209.66" y="713" as="targetPoint" />
          </mxGeometry>
        </mxCell>
        <mxCell id="53TVA5k776LkS0prdjDd-45" value="" style="endArrow=classic;html=1;rounded=0;entryX=0.5;entryY=0;entryDx=0;entryDy=0;strokeColor=#000000;exitX=0.5;exitY=1;exitDx=0;exitDy=0;" parent="1" source="53TVA5k776LkS0prdjDd-19" target="53TVA5k776LkS0prdjDd-20" edge="1">
          <mxGeometry width="50" height="50" relative="1" as="geometry">
            <mxPoint x="209.66" y="810" as="sourcePoint" />
            <mxPoint x="209.66" y="861" as="targetPoint" />
          </mxGeometry>
        </mxCell>
        <mxCell id="53TVA5k776LkS0prdjDd-47" value="" style="endArrow=classic;html=1;rounded=0;entryX=1;entryY=0.5;entryDx=0;entryDy=0;strokeColor=#000000;exitX=0;exitY=0.5;exitDx=0;exitDy=0;" parent="1" source="53TVA5k776LkS0prdjDd-19" target="53TVA5k776LkS0prdjDd-37" edge="1">
          <mxGeometry width="50" height="50" relative="1" as="geometry">
            <mxPoint x="220" y="816" as="sourcePoint" />
            <mxPoint x="220" y="867" as="targetPoint" />
          </mxGeometry>
        </mxCell>
        <mxCell id="53TVA5k776LkS0prdjDd-49" value="&lt;font style=&quot;color: rgb(0, 0, 0); font-size: 10px;&quot;&gt;Simpan Data Nilai&lt;/font&gt;" style="text;strokeColor=none;align=center;fillColor=none;html=1;verticalAlign=middle;whiteSpace=wrap;rounded=0;rotation=0;" parent="1" vertex="1">
          <mxGeometry x="57" y="725" width="106" height="22" as="geometry" />
        </mxCell>
        <mxCell id="53TVA5k776LkS0prdjDd-50" value="" style="endArrow=classic;html=1;rounded=0;entryX=1;entryY=0.5;entryDx=0;entryDy=0;strokeColor=#000000;exitX=0;exitY=0.5;exitDx=0;exitDy=0;" parent="1" source="53TVA5k776LkS0prdjDd-20" target="53TVA5k776LkS0prdjDd-38" edge="1">
          <mxGeometry width="50" height="50" relative="1" as="geometry">
            <mxPoint x="170" y="766" as="sourcePoint" />
            <mxPoint x="67" y="766" as="targetPoint" />
          </mxGeometry>
        </mxCell>
        <mxCell id="53TVA5k776LkS0prdjDd-51" value="&lt;font style=&quot;color: rgb(0, 0, 0); font-size: 10px;&quot;&gt;Simpan Data tagihan&lt;/font&gt;" style="text;strokeColor=none;align=center;fillColor=none;html=1;verticalAlign=middle;whiteSpace=wrap;rounded=0;rotation=0;" parent="1" vertex="1">
          <mxGeometry x="52" y="881" width="106" height="22" as="geometry" />
        </mxCell>
        <mxCell id="53TVA5k776LkS0prdjDd-52" value="" style="endArrow=classic;html=1;rounded=0;entryX=0.25;entryY=1;entryDx=0;entryDy=0;strokeColor=#000000;exitX=0.5;exitY=0;exitDx=0;exitDy=0;" parent="1" source="53TVA5k776LkS0prdjDd-37" target="53TVA5k776LkS0prdjDd-21" edge="1">
          <mxGeometry width="50" height="50" relative="1" as="geometry">
            <mxPoint x="170" y="766" as="sourcePoint" />
            <mxPoint x="67" y="766" as="targetPoint" />
          </mxGeometry>
        </mxCell>
        <mxCell id="53TVA5k776LkS0prdjDd-53" value="&lt;font color=&quot;#000000&quot;&gt;Memberi Informasi Nilai&lt;/font&gt;" style="text;strokeColor=none;align=center;fillColor=none;html=1;verticalAlign=middle;whiteSpace=wrap;rounded=0;rotation=-90;" parent="1" vertex="1">
          <mxGeometry x="-100.5" y="607.5" width="143" height="28" as="geometry" />
        </mxCell>
        <mxCell id="53TVA5k776LkS0prdjDd-54" value="" style="endArrow=classic;html=1;rounded=0;entryX=0;entryY=0.75;entryDx=0;entryDy=0;strokeColor=#000000;exitX=0;exitY=0.5;exitDx=0;exitDy=0;" parent="1" source="53TVA5k776LkS0prdjDd-38" target="53TVA5k776LkS0prdjDd-21" edge="1">
          <mxGeometry width="50" height="50" relative="1" as="geometry">
            <mxPoint x="170" y="766" as="sourcePoint" />
            <mxPoint x="67" y="766" as="targetPoint" />
            <Array as="points">
              <mxPoint x="-135" y="907" />
              <mxPoint x="-135" y="467" />
            </Array>
          </mxGeometry>
        </mxCell>
        <mxCell id="53TVA5k776LkS0prdjDd-55" value="&lt;font color=&quot;#000000&quot;&gt;Memberi Informasi Tagihan&lt;/font&gt;" style="text;strokeColor=none;align=center;fillColor=none;html=1;verticalAlign=middle;whiteSpace=wrap;rounded=0;rotation=-90;" parent="1" vertex="1">
          <mxGeometry x="-227" y="763" width="143" height="28" as="geometry" />
        </mxCell>
      </root>
    </mxGraphModel>
  </diagram>
</mxfile>
